<svg height="512" viewBox="0 0 128 128" width="512" xmlns="http://www.w3.org/2000/svg" xmlns:xlink="http://www.w3.org/1999/xlink"><linearGradient id="a" gradientUnits="userSpaceOnUse" x1="115.87" x2="12.13" y1="125.884" y2="22.144"><stop offset="0" stop-color="#27d072"/><stop offset="1" stop-color="#ffd400"/></linearGradient><path d="m51.437 11.748a1.751 1.751 0 0 1 1.75-1.748h21.625a1.75 1.75 0 0 1 0 3.5h-21.625a1.75 1.75 0 0 1 -1.75-1.752zm10.813 82.3v-7.566h-3.875a19.7 19.7 0 0 1 -10.275-2.882 1.75 1.75 0 1 1 1.824-2.987 16.206 16.206 0 0 0 8.45 2.367h1.4l-9.544-9.543a1.75 1.75 0 0 1 2.475-2.475l9.544 9.544v-1.4a16.269 16.269 0 0 0 -16.249-16.249h-3.875v3.875a16.087 16.087 0 0 0 1.7 7.236 1.75 1.75 0 1 1 -3.133 1.56 19.561 19.561 0 0 1 -2.062-8.8v-5.621a1.75 1.75 0 0 1 1.75-1.75h5.62a19.764 19.764 0 0 1 18 11.665 19.764 19.764 0 0 1 18-11.665h5.625a1.75 1.75 0 0 1 1.75 1.75v5.625a19.771 19.771 0 0 1 -19.75 19.75h-3.875v7.563a1.75 1.75 0 1 1 -3.5 0zm3.5-14.938v1.4l9.544-9.544a1.75 1.75 0 0 1 2.475 2.475l-9.544 9.543h1.4a16.268 16.268 0 0 0 16.25-16.25v-3.877h-3.875a16.269 16.269 0 0 0 -16.25 16.25zm36.746-35.7q.415 1.937.81 3.876a1.75 1.75 0 1 0 3.429-.7q-.4-1.957-.817-3.912a1.75 1.75 0 0 0 -3.422.735zm12.285 82.84a1.75 1.75 0 0 1 -1.75 1.75h-98.062a1.75 1.75 0 0 1 -1.75-1.75c0-3.818.07-7.9.214-12.491a398.627 398.627 0 0 1 18.924-109.559l.953-2.964a1.812 1.812 0 0 1 1.674-1.236h58.032a1.81 1.81 0 0 1 1.673 1.239l.954 2.961c2.706 8.416 5.16 17.029 7.294 25.6a1.75 1.75 0 1 1 -3.4.846c-2.019-8.122-4.337-16.277-6.881-24.268l-8.084 16.155a1.75 1.75 0 0 1 -1.565.967h-38.014a1.75 1.75 0 0 1 -1.565-.967l-8.084-16.155a395.163 395.163 0 0 0 -18.353 105.683h94.018a397.449 397.449 0 0 0 -5.558-53.4 1.75 1.75 0 0 1 3.449-.6 400.785 400.785 0 0 1 5.667 55.689c.144 4.593.214 8.679.214 12.497zm-76.965-122.75 8.258 16.5h35.852l8.258-16.5zm73.46 121c-.015-2.791-.067-5.741-.157-8.936h-94.238c-.09 3.195-.142 6.145-.157 8.936z" fill="url(#a)"/></svg>