<svg width="96" height="96" viewBox="0 0 96 96" fill="none" xmlns="http://www.w3.org/2000/svg">
<path d="M75.5116 2.304L74.6296 0H21.3704L20.4884 2.304C10.0772 29.5235 4.25604 57.8342 3.19458 86.4108H92.8045C91.7438 57.8342 85.9229 29.5235 75.5116 2.304V2.304Z" fill="#804231"/>
<path d="M65.4446 15.424L74.6298 0H21.3706L30.5558 15.424H65.4446Z" fill="#FF7816"/>
<path d="M57.923 9.06256H38.0759C37.6499 9.06256 37.2414 8.9204 36.9401 8.66734C36.6389 8.41427 36.4697 8.07105 36.4697 7.71317C36.4697 7.35528 36.6389 7.01206 36.9401 6.759C37.2414 6.50594 37.6499 6.36377 38.0759 6.36377H57.923C58.349 6.36377 58.7575 6.50594 59.0587 6.759C59.3599 7.01206 59.5291 7.35528 59.5291 7.71317C59.5291 8.07105 59.3599 8.41427 59.0587 8.66734C58.7575 8.9204 58.349 9.06256 57.923 9.06256V9.06256Z" fill="#FFD400"/>
<path d="M26.3171 45.7716H31.4797C35.8611 45.7716 40.0631 47.2339 43.1612 49.8368C46.2593 52.4397 47.9998 55.97 47.9998 59.6511V63.9885H42.8373C38.4559 63.9885 34.2539 62.5262 31.1558 59.9233C28.0577 57.3203 26.3171 53.79 26.3171 50.109V45.7716Z" fill="#98E53B"/>
<path d="M53.1625 63.9893H47.9999V59.6519C47.9999 55.9708 49.7404 52.4405 52.8386 49.8376C55.9367 47.2347 60.1386 45.7724 64.5201 45.7724H69.6826V50.1097C69.6826 53.7908 67.9421 57.3211 64.844 59.924C61.7458 62.527 57.5439 63.9893 53.1625 63.9893V63.9893Z" fill="#98E53B"/>
<path d="M60.6368 53.372C60.4877 53.2466 60.3107 53.1471 60.1158 53.0793C59.9209 53.0114 59.712 52.9764 59.501 52.9764C59.2901 52.9764 59.0812 53.0114 58.8863 53.0793C58.6914 53.1471 58.5144 53.2466 58.3653 53.372L47.9998 62.0807L37.6343 53.372C37.3331 53.119 36.9245 52.9768 36.4985 52.9768C36.0725 52.9768 35.664 53.119 35.3628 53.372C35.0616 53.6251 34.8923 53.9684 34.8923 54.3263C34.8923 54.6842 35.0616 55.0274 35.3628 55.2805L46.3937 64.5481V71.1694C46.3937 71.5273 46.5629 71.8705 46.8641 72.1236C47.1653 72.3767 47.5738 72.5188 47.9998 72.5188C48.4258 72.5188 48.8343 72.3767 49.1355 72.1236C49.4367 71.8705 49.6059 71.5273 49.6059 71.1694V64.5481L60.6368 55.2805C60.9378 55.0273 61.1069 54.6841 61.1069 54.3263C61.1069 53.9684 60.9378 53.6252 60.6368 53.372V53.372Z" fill="#27D072"/>
<path d="M3.19457 86.4109C3.07618 89.6047 3 92.8009 3 96.0001H93C93 92.8009 92.9238 89.6047 92.8045 86.4109H3.19457Z" fill="#FFD400"/>
</svg>
