<svg width="96" height="96" viewBox="0 0 96 96" fill="none" xmlns="http://www.w3.org/2000/svg">
<path d="M48 96C74.5097 96 96 74.5097 96 48C96 21.4903 74.5097 0 48 0C21.4903 0 0 21.4903 0 48C0 74.5097 21.4903 96 48 96Z" fill="#FFF8DD"/>
<path fill-rule="evenodd" clip-rule="evenodd" d="M0 48H96C96 74.5097 74.5097 96 48 96C21.4903 96 0 74.5097 0 48Z" fill="#202205"/>
<path d="M48.0014 48H48C48.1526 48 57.263 58.7257 57.263 63.6888C57.263 66.1455 56.2871 68.5015 54.5499 70.2386C52.8128 71.9759 50.4567 72.9517 48 72.9517C45.5433 72.9517 43.1872 71.9759 41.4501 70.2386C39.7129 68.5015 38.737 66.1455 38.737 63.6888C38.737 58.7425 47.8305 48 48 48H12C12 57.5478 15.7928 66.7045 22.5441 73.4558C29.2955 80.2071 38.4522 84 48 84C57.5478 84 66.7046 80.2071 73.4558 73.4558C80.2071 66.7045 84 57.5478 84 48H48.0014Z" fill="#FFF8DD"/>
<path d="M72.75 22.125C66.1993 22.1254 59.9158 24.8491 55.2765 29.6992C50.6372 34.5493 48.0206 41.1304 48 48C54.5508 47.9997 60.8343 45.276 65.4735 40.4258C70.1128 35.5757 72.7294 28.9947 72.75 22.125Z" fill="#41A65B"/>
<path d="M22.1255 22.125C28.974 22.1254 35.5431 24.8491 40.3933 29.6992C45.2434 34.5493 47.979 41.1304 48.0005 48C41.152 47.9997 34.5829 45.276 29.7328 40.4258C24.8826 35.5757 22.147 28.9947 22.1255 22.125Z" fill="#41A65B"/>
</svg>
